# xmcd
# Track frame offsets:
# 150
# 29311
# 60870
# 78129
# 100158
# 122428
# 147058
# 180418
# 204440
# 225501
# 245382
# 280347
# 296672
#
# Disc length: 4248 seconds
# Revision: 3
# Processed by: cddbd v1.5.1PL2 Copyright (c) Steve Scherf et al.
# Submitted via: VisiTrax 2.10.0.248 - For more info visit www.synapsa.com
#
DISCID=a110960d
DTITLE=Various Artist - Jazz Magazine Nr. 41
DYEAR=2006
DGENRE=Jazz
TTITLE0=ANOUAR BRAHEM - Sur Le Fleuve
TTITLE1=PAUL MOTIAN BAND - Pithecanhropus Erectus
TTITLE2=FRANCESCO CAFISO and STRING - Easy To Love
TTITLE3=ray barretto - Palladium Nights
TTITLE4=THE DEXTERS - Melancholy Serenade
TTITLE5=DANIELE DI BONAVENTURA - Tarantella Per Ralph
TTITLE6=enrica bacchia e marco ponchiroli - Danza
TTITLE7=URI CAINE - Strom's Theremin
TTITLE8=ALFREDO FERRARIO - Someday's Sweetheart
TTITLE9=MICHAEL KAESHAMMER - Comes Love
TTITLE10=CARLA MARCIANO 4TEt - Dance Of Mind
TTITLE11=JACOB FRED JAZZ ODYSSEY - Halliburton Breakdown
TTITLE12=VITO REZZA AND 5AFTER4 - In Dreams
EXTD=YEAR: 2006
EXTT0=
EXTT1=
EXTT2=
EXTT3=
EXTT4=
EXTT5=
EXTT6=
EXTT7=
EXTT8=
EXTT9=
EXTT10=
EXTT11=
EXTT12=
PLAYORDER=
